<svg width="35" height="27" viewBox="0 0 35 27" fill="none" xmlns="http://www.w3.org/2000/svg">
<path d="M18.1554 26C19.4801 26 20.554 24.8807 20.554 23.5C20.554 22.1193 19.4801 21 18.1554 21C16.8306 21 15.7567 22.1193 15.7567 23.5C15.7567 24.8807 16.8306 26 18.1554 26Z" stroke="white" stroke-width="1.8" stroke-linecap="round" stroke-linejoin="round"/>
<path d="M29.6689 26C30.9937 26 32.0676 24.8807 32.0676 23.5C32.0676 22.1193 30.9937 21 29.6689 21C28.3442 21 27.2703 22.1193 27.2703 23.5C27.2703 24.8807 28.3442 26 29.6689 26Z" stroke="white" stroke-width="1.8" stroke-linecap="round" stroke-linejoin="round"/>
<path d="M15.0917 6.66653H33.9865L32.1548 16.175C32.0551 16.6967 31.782 17.1654 31.3834 17.499C30.9847 17.8326 30.4859 18.0098 29.9742 17.9996H18.4498C17.9174 18.0043 17.4017 17.8063 17 17.4431C16.5983 17.0798 16.3384 16.5764 16.2692 16.0276L14.6119 2.97195C14.5432 2.4271 14.2864 1.92675 13.8893 1.56401C13.4922 1.20127 12.9818 1.00083 12.4532 1H10" stroke="white" stroke-width="1.8" stroke-linecap="round" stroke-linejoin="round"/>
<line x1="4" y1="10" x2="4" y2="18" stroke="white" stroke-width="2"/>
<line x1="4" y1="10" x2="4" y2="18" stroke="white" stroke-width="2"/>
<line x1="8" y1="14" y2="14" stroke="white" stroke-width="2"/>
<line x1="8" y1="14" y2="14" stroke="white" stroke-width="2"/>
</svg>
